<?xml version="1.0"?><svg id="Layer_2" xmlns="http://www.w3.org/2000/svg" viewBox="0 0 216.39 361.97"><defs></defs><g id="Layer_1-2"><rect fill="#2F3237" x="179.76" y="78.11" width="17.67" height="205.32" transform="translate(377.19 361.53) rotate(-180)"></rect><rect fill="#751D2F" x="22.81" y="80.22" width="17.67" height="205.32" transform="translate(63.29 365.76) rotate(-180)"></rect><polygon fill="none" points="108.19 224.02 141.94 180.98 108.19 137.95 74.45 180.98 108.19 224.02"></polygon><polygon fill="#751D2F" points="0 361.97 29.93 361.97 110.16 259.68 95.19 240.6 0 361.97"></polygon><polygon fill="#751D2F" points="110.16 102.29 29.93 0 0 0 95.19 121.37 110.16 102.29"></polygon><polygon fill="#751D2F" points="141.94 180.98 108.19 224.02 123.16 243.1 171.88 180.98 123.16 118.87 108.19 137.95 141.94 180.98"></polygon><polygon fill="#2F3237" points="74.45 180.98 108.19 137.95 95.19 121.37 48.44 180.98 95.19 240.6 108.19 224.02 74.45 180.98"></polygon><polygon fill="#2F3237" points="216.39 0 190.38 0 110.16 102.29 123.16 118.87 216.39 0"></polygon><polygon fill="#2F3237" points="190.38 361.97 216.39 361.97 123.16 243.1 110.16 259.68 190.38 361.97"></polygon><polygon fill="#751D2F" points="108.19 137.95 123.16 118.87 110.16 102.29 95.19 121.37 108.19 137.95"></polygon><polygon fill="#2F3237" points="95.19 240.6 110.16 259.68 123.16 243.1 108.19 224.02 95.19 240.6"></polygon></g></svg>