<?xml version="1.0"?><svg id="Layer_2" xmlns="http://www.w3.org/2000/svg" viewBox="0 0 825.3 361.97"><defs></defs><g id="Layer_1-2"><path fill="#F7F7F8" d="M422.93,77.91c20.88,0,36.73,5.41,47.54,16.22,10.81,10.81,16.22,26.66,16.22,47.54v66.53c0,20.89-5.4,36.73-16.22,47.54-10.81,10.81-26.66,16.22-47.54,16.22h-108.11V77.91h108.11ZM436.79,141.67c0-16.63-8.32-24.95-24.95-24.95h-47.12v116.43h47.12c16.63,0,24.95-8.32,24.95-24.95v-66.53Z"></path><path fill="#F7F7F8" d="M707.95,219.29c0,19.4-4.39,33.5-13.17,42.28-8.78,8.78-22.87,13.17-42.28,13.17h-69.3c-19.4,0-33.5-4.38-42.27-13.17-8.78-8.78-13.17-22.87-13.17-42.28v-88.71c0-19.4,4.39-33.49,13.17-42.28,8.77-8.78,22.87-13.17,42.27-13.17h69.3c19.4,0,33.49,4.39,42.28,13.17,8.78,8.78,13.17,22.87,13.17,42.28v88.71ZM658.05,130.58c0-11.09-5.54-16.63-16.63-16.63h-47.12c-11.09,0-16.63,5.54-16.63,16.63v88.71c0,11.09,5.54,16.63,16.63,16.63h47.12c11.09,0,16.63-5.54,16.63-16.63v-88.71Z"></path><rect fill="#F7F7F8" x="758.31" y="77.91" width="48.81" height="194.04"></rect><path fill="#F7F7F8" d="M764.34,77.89h-24.08l24.92,24.92s-1.02-24.73-.83-24.92Z"></path><path fill="#F7F7F8" d="M764.46,271.93h-24.08l24.92-24.92s-1.02,24.73-.83,24.92Z"></path><path fill="#F7F7F8" d="M801.09,77.89h24.08s-24.92,24.92-24.92,24.92c0,0,1.02-24.73.83-24.92Z"></path><path fill="#F7F7F8" d="M801.22,271.93h24.08s-24.92-24.92-24.92-24.92c0,0,1.02,24.73.83,24.92Z"></path><path fill="#F7F7F8" d="M336.59,328.7l-.03-17.85-8.86,14.88h-1.61l-8.85-14.77v17.75h-3.36v-24.5h2.87l10.22,17.22,10.08-17.22h2.87l.04,24.5h-3.36Z"></path><path fill="#F7F7F8" d="M364.31,322.58h-13.02l-2.69,6.12h-3.61l11.09-24.5h3.47l11.13,24.5h-3.67l-2.7-6.12ZM363.08,319.78l-5.28-12-5.29,12h10.57Z"></path><path fill="#F7F7F8" d="M392.1,328.7l-5.29-7.53c-.65.05-1.17.07-1.54.07h-6.06v7.46h-3.5v-24.5h9.56c3.17,0,5.67.76,7.49,2.28,1.82,1.52,2.73,3.6,2.73,6.26,0,1.89-.47,3.5-1.4,4.83s-2.26,2.3-3.99,2.91l5.81,8.22h-3.82ZM390.24,316.84c1.17-.96,1.75-2.32,1.75-4.09s-.58-3.13-1.75-4.08c-1.17-.95-2.86-1.42-5.08-1.42h-5.95v11.03h5.95c2.22,0,3.91-.48,5.08-1.44Z"></path><path fill="#F7F7F8" d="M410.54,317.82l-4.48,4.55v6.33h-3.5v-24.5h3.5v13.68l13.3-13.68h3.99l-10.46,11.03,11.13,13.47h-4.09l-9.38-10.88Z"></path><path fill="#F7F7F8" d="M446.9,325.66v3.04h-17.78v-24.5h17.29v3.04h-13.79v7.53h12.29v2.97h-12.29v7.91h14.28Z"></path><path fill="#F7F7F8" d="M458.84,307.25h-8.4v-3.04h20.27v3.04h-8.4v21.46h-3.46v-21.46Z"></path><path fill="#F7F7F8" d="M475.92,304.2h3.5v24.5h-3.5v-24.5Z"></path><path fill="#F7F7F8" d="M509.24,304.2v24.5h-2.87l-14.7-18.27v18.27h-3.5v-24.5h2.87l14.7,18.27v-18.27h3.5Z"></path><path fill="#F7F7F8" d="M534.96,316.31h3.36v9.55c-1.21,1-2.62,1.77-4.23,2.31-1.61.54-3.29.81-5.04.81-2.47,0-4.7-.54-6.69-1.63s-3.54-2.58-4.67-4.48c-1.13-1.9-1.7-4.04-1.7-6.42s.57-4.53,1.7-6.44c1.13-1.91,2.69-3.41,4.69-4.48s4.24-1.61,6.74-1.61c1.96,0,3.74.32,5.34.96,1.6.64,2.96,1.58,4.08,2.82l-2.17,2.17c-1.96-1.89-4.33-2.83-7.1-2.83-1.87,0-3.54.4-5.02,1.21-1.48.8-2.64,1.92-3.48,3.36-.84,1.44-1.26,3.05-1.26,4.85s.42,3.38,1.26,4.81c.84,1.43,2,2.56,3.48,3.38,1.48.82,3.14,1.22,4.99,1.22,2.19,0,4.11-.53,5.74-1.58v-7.98Z"></path><path fill="#F7F7F8" d="M571.57,317.85h-6.37v6.26h-2.94v-6.26h-6.37v-2.77h6.37v-6.3h2.94v6.3h6.37v2.77Z"></path><path fill="#F7F7F8" d="M589.81,304.2h10.33c2.59,0,4.89.51,6.89,1.54,2.01,1.03,3.56,2.47,4.67,4.32,1.11,1.86,1.66,3.98,1.66,6.39s-.55,4.53-1.66,6.39c-1.11,1.85-2.67,3.3-4.67,4.32-2.01,1.03-4.3,1.54-6.89,1.54h-10.33v-24.5ZM599.92,325.66c1.98,0,3.73-.38,5.23-1.16,1.5-.77,2.67-1.85,3.48-3.24.82-1.39,1.23-2.99,1.23-4.81s-.41-3.42-1.23-4.81c-.82-1.39-1.98-2.47-3.48-3.24-1.5-.77-3.25-1.16-5.23-1.16h-6.62v18.41h6.62Z"></path><path fill="#F7F7F8" d="M637.9,325.66v3.04h-17.78v-24.5h17.29v3.04h-13.79v7.53h12.29v2.97h-12.29v7.91h14.28Z"></path><path fill="#F7F7F8" d="M646.77,328.12c-1.71-.57-3.06-1.31-4.04-2.22l1.3-2.73c.93.84,2.13,1.52,3.59,2.05s2.96.79,4.5.79c2.03,0,3.55-.34,4.55-1.03,1-.69,1.5-1.6,1.5-2.75,0-.84-.27-1.52-.82-2.05-.55-.53-1.23-.93-2.03-1.21-.8-.28-1.94-.59-3.41-.94-1.84-.44-3.33-.89-4.46-1.33s-2.1-1.13-2.91-2.05c-.8-.92-1.21-2.16-1.21-3.73,0-1.31.34-2.48,1.03-3.54.69-1.05,1.73-1.89,3.13-2.52,1.4-.63,3.14-.95,5.21-.95,1.45,0,2.87.19,4.27.56,1.4.37,2.6.91,3.61,1.61l-1.16,2.8c-1.03-.65-2.12-1.15-3.29-1.49-1.17-.34-2.31-.51-3.43-.51-1.98,0-3.47.36-4.46,1.08s-1.49,1.66-1.49,2.8c0,.84.28,1.52.84,2.05.56.52,1.25.93,2.08,1.22.83.29,1.95.6,3.38.93,1.84.44,3.33.89,4.45,1.33s2.08,1.12,2.89,2.03c.8.91,1.21,2.14,1.21,3.68,0,1.28-.35,2.46-1.05,3.52-.7,1.06-1.76,1.9-3.18,2.52-1.42.62-3.17.93-5.25.93-1.84,0-3.62-.29-5.34-.86Z"></path><path fill="#F7F7F8" d="M668.1,304.2h3.5v24.5h-3.5v-24.5Z"></path><path fill="#F7F7F8" d="M697.33,316.31h3.36v9.55c-1.21,1-2.62,1.77-4.23,2.31-1.61.54-3.29.81-5.04.81-2.47,0-4.7-.54-6.69-1.63s-3.54-2.58-4.67-4.48c-1.13-1.9-1.7-4.04-1.7-6.42s.57-4.53,1.7-6.44c1.13-1.91,2.69-3.41,4.69-4.48s4.24-1.61,6.74-1.61c1.96,0,3.74.32,5.34.96,1.6.64,2.96,1.58,4.08,2.82l-2.17,2.17c-1.96-1.89-4.33-2.83-7.1-2.83-1.87,0-3.54.4-5.02,1.21-1.48.8-2.64,1.92-3.48,3.36-.84,1.44-1.26,3.05-1.26,4.85s.42,3.38,1.26,4.81c.84,1.43,2,2.56,3.48,3.38,1.48.82,3.14,1.22,4.99,1.22,2.19,0,4.11-.53,5.74-1.58v-7.98Z"></path><path fill="#F7F7F8" d="M729.84,304.2v24.5h-2.87l-14.7-18.27v18.27h-3.5v-24.5h2.87l14.7,18.27v-18.27h3.5Z"></path><path fill="#F7F7F8" d="M753.73,327.35c-1.97-1.08-3.52-2.58-4.64-4.48s-1.68-4.04-1.68-6.42.56-4.52,1.68-6.42c1.12-1.9,2.67-3.39,4.65-4.48s4.2-1.63,6.65-1.63c1.91,0,3.66.32,5.25.96s2.94,1.59,4.06,2.85l-2.27,2.21c-1.84-1.94-4.14-2.91-6.9-2.91-1.82,0-3.46.41-4.93,1.22-1.47.82-2.62,1.94-3.45,3.38-.83,1.43-1.24,3.04-1.24,4.81s.41,3.38,1.24,4.81c.83,1.43,1.98,2.56,3.45,3.38,1.47.82,3.12,1.22,4.93,1.22,2.73,0,5.03-.98,6.9-2.94l2.27,2.21c-1.12,1.26-2.48,2.22-4.08,2.87-1.6.65-3.35.98-5.27.98-2.45,0-4.66-.54-6.63-1.63Z"></path><path fill="#F7F7F8" d="M779.96,327.35c-1.98-1.08-3.54-2.58-4.67-4.5-1.13-1.91-1.7-4.05-1.7-6.41s.57-4.49,1.7-6.41c1.13-1.91,2.69-3.41,4.67-4.5s4.21-1.63,6.69-1.63,4.67.54,6.65,1.63,3.54,2.58,4.66,4.48c1.12,1.9,1.68,4.04,1.68,6.42s-.56,4.52-1.68,6.42-2.67,3.39-4.66,4.48-4.2,1.63-6.65,1.63-4.7-.54-6.69-1.63ZM791.49,324.64c1.44-.82,2.57-1.94,3.4-3.38s1.24-3.04,1.24-4.81-.41-3.38-1.24-4.81-1.96-2.56-3.4-3.38c-1.43-.82-3.05-1.22-4.85-1.22s-3.42.41-4.88,1.22c-1.46.82-2.6,1.94-3.43,3.38-.83,1.43-1.24,3.04-1.24,4.81s.41,3.38,1.24,4.81c.83,1.43,1.97,2.56,3.43,3.38,1.46.82,3.08,1.22,4.88,1.22s3.41-.41,4.85-1.22Z"></path><path fill="#F7F7F8" d="M804.32,328.23c-.47-.46-.7-1.03-.7-1.73s.23-1.24.7-1.7,1.03-.68,1.68-.68,1.2.22,1.64.67.67,1.01.67,1.71-.23,1.28-.68,1.73-1,.68-1.63.68-1.21-.23-1.68-.68Z"></path><path fill="#F7F7F8" d="M319.44,77.89h-24.08l24.92,24.92s-1.02-24.73-.83-24.92Z"></path><path fill="#F7F7F8" d="M319.44,272.05h-24.08l24.92-24.92s-1.02,24.73-.83,24.92Z"></path><rect fill="#751D2F" x="179.76" y="78.11" width="17.67" height="205.32" transform="translate(377.19 361.53) rotate(-180)"></rect><rect fill="#F7F7F8" x="22.81" y="80.22" width="17.67" height="205.32" transform="translate(63.29 365.76) rotate(-180)"></rect><polygon fill="none" points="108.19 224.02 141.94 180.98 108.19 137.95 74.45 180.98 108.19 224.02"></polygon><polygon fill="#F7F7F8" points="0 361.97 29.93 361.97 110.16 259.68 95.19 240.6 0 361.97"></polygon><polygon fill="#F7F7F8" points="110.16 102.29 29.93 0 0 0 95.19 121.37 110.16 102.29"></polygon><polygon fill="#F7F7F8" points="141.94 180.98 108.19 224.02 123.16 243.1 171.88 180.98 123.16 118.87 108.19 137.95 141.94 180.98"></polygon><polygon fill="#751D2F" points="74.45 180.98 108.19 137.95 95.19 121.37 48.44 180.98 95.19 240.6 108.19 224.02 74.45 180.98"></polygon><polygon fill="#751D2F" points="216.39 0 190.38 0 110.16 102.29 123.16 118.87 216.39 0"></polygon><polygon fill="#751D2F" points="190.38 361.97 216.39 361.97 123.16 243.1 110.16 259.68 190.38 361.97"></polygon><polygon fill="#F7F7F8" points="108.19 137.95 123.16 118.87 110.16 102.29 95.19 121.37 108.19 137.95"></polygon><polygon fill="#751D2F" points="95.19 240.6 110.16 259.68 123.16 243.1 108.19 224.02 95.19 240.6"></polygon></g></svg>